<?xml version="1.0" encoding="utf-8"?>
<!-- Generator: Adobe Illustrator 24.1.2, SVG Export Plug-In . SVG Version: 6.00 Build 0)  -->
<svg version="1.1" id="レイヤー_1" xmlns="http://www.w3.org/2000/svg" xmlns:xlink="http://www.w3.org/1999/xlink" x="0px"
	 y="0px" viewBox="0 0 192 192" style="enable-background:new 0 0 192 192;" xml:space="preserve">
<style type="text/css">
	.st0{fill:#E44D26;}
	.st1{fill:#F16529;}
	.st2{fill:#EBEBEB;}
	.st3{fill:#FFFFFF;}
</style>
<g>
	<path class="st0" d="M96.4,185.8l-51.7-14.4L33.1,42.1h126.7l-11.5,129.3L96.4,185.8z"/>
	<path class="st1" d="M138.4,163.2l9.9-110.5H96.4v122.1L138.4,163.2z"/>
	<path class="st2" d="M73.2,68.6H56.7l0.4,4.3l3.9,43.7"/>
	<path class="st2" d="M60.9,116.5l2.9,32.8l32.5,9h0.1v-16.5h-0.1L78.6,137l-5.5-68.5"/>
	<path class="st3" d="M58.9,7H67v16h7.4V7h8.1v24.1h-8.1l0,0H67l0,0h-8.1V7L58.9,7z"/>
	<path class="st3" d="M118.7,15h-7.1V7h22.3v8h-7.1v16.1h-8.1V15L118.7,15z"/>
	<path class="st3" d="M93,7h8.1v16.1l0,0v8H93V7L93,7z"/>
	<path class="st3" d="M120.1,68.6l-6.1,68.5l-17.7,4.8v16.5l32.5-9l0.2-2.7l3.7-41.8l2.9-32.1"/>
	<path class="st3" d="M135.7,72.8l0.4-4.3h-16"/>
</g>
</svg>
